<svg width="201" height="179" viewBox="0 0 201 179" fill="none" xmlns="http://www.w3.org/2000/svg">
<path d="M194.616 129.471C191.338 122.015 185.043 115.794 177.482 112.732C169.606 109.542 160.562 110.703 152.266 109.635C145.061 108.707 139.862 105.491 135.56 99.7718C131.438 94.2922 127.742 88.2238 121.002 85.6892C115.677 83.6865 109.622 84.2415 104.329 86.3285C94.5757 90.174 87.2092 98.3509 81.0051 106.497C75.3408 113.934 70.7206 122.078 60.2433 122.344C49.7594 122.609 39.7785 116.629 29.2225 118.214C15.2712 120.308 3.65261 131.922 1.21782 145.749C-1.06398 158.707 4.66186 171.275 14.4986 178.66H183.576C195.971 165.511 202.475 147.346 194.616 129.471Z" fill="#2F9C8C" fill-opacity="0.2"/>
<path d="M41.7731 178.66H42.2382C45.4683 175.109 47.9986 170.801 49.607 166.019C52.2105 158.279 52.1007 150.157 49.298 143.147C47.8816 139.605 45.8363 136.303 43.8583 133.11C41.8522 129.872 39.7781 126.524 38.3702 122.936C37.7881 121.453 37.3581 119.86 37.0994 118.235C36.9829 118.219 36.8662 118.207 36.7495 118.193C37.0094 119.876 37.4515 121.526 38.0537 123.06C39.4726 126.677 41.5552 130.039 43.5692 133.29C45.5394 136.47 47.5768 139.759 48.9821 143.273C51.7549 150.208 51.8623 158.247 49.2846 165.911C47.6564 170.752 45.0731 175.101 41.7731 178.66Z" fill="white"/>
<path d="M182.759 163.914C186.243 164.656 189.6 165.322 192.847 165.741C192.902 165.634 192.956 165.526 193.011 165.418C189.738 165.002 186.349 164.331 182.83 163.581C177.472 162.44 171.673 161.204 165.92 161.204C162.359 161.204 158.816 161.678 155.407 162.941C154.116 163.419 152.872 164.026 151.687 164.75C148.61 163.438 145.516 162.006 142.451 160.434C144.675 158.759 146.922 157.118 149.193 155.532C166.054 143.758 181.615 137.084 196.649 135.189C196.618 135.079 196.587 134.969 196.556 134.859C181.482 136.769 165.887 143.46 148.999 155.253C146.679 156.873 144.385 158.549 142.115 160.261C138.669 158.481 135.263 156.523 131.967 154.364C125.989 150.447 118.879 144.856 112.669 137.427C136.733 134.727 161.234 131.326 181.242 117.954C182.002 117.446 182.844 116.847 183.716 116.168C183.619 116.099 183.522 116.032 183.424 115.964C182.589 116.612 181.783 117.183 181.053 117.671C161.05 131.04 136.504 134.415 112.408 137.114C108.02 131.807 104.099 125.572 101.375 118.354C97.1304 107.112 97.3544 96.0785 101.99 88.0842C102.191 87.737 102.403 87.3953 102.622 87.0569C102.429 87.1457 102.237 87.2379 102.045 87.3301C101.926 87.5234 101.809 87.7176 101.695 87.9135C97.0088 95.9968 96.7758 107.136 101.056 118.475C103.766 125.653 107.652 131.863 112.005 137.159C110.61 137.315 109.215 137.469 107.824 137.623C102.806 138.176 97.6174 138.749 92.5792 139.398C90.7401 139.635 88.8699 139.911 87.009 140.257C83.0198 131.837 78.6379 123.624 72.9734 116.58C72.8924 116.66 72.8099 116.739 72.7282 116.818C78.3441 123.809 82.6988 131.961 86.6636 140.322C78.5472 141.87 70.6657 144.78 66.4576 151.553C62.5275 157.878 62.5311 166.621 66.4682 177.54C66.6044 177.917 66.7446 178.29 66.8868 178.66H67.251C67.0952 178.255 66.9402 177.846 66.7881 177.424C62.8881 166.609 62.8742 157.965 66.7466 151.732C70.9048 145.04 78.7429 142.168 86.8142 140.639C88.2224 143.618 89.5828 146.622 90.9349 149.607L91.0821 149.931C95.7776 160.297 100.634 170.301 106.993 178.66H107.418C101.001 170.285 96.1168 160.222 91.3919 149.791L91.2449 149.467C89.9043 146.507 88.5552 143.529 87.1597 140.575C88.9847 140.238 90.8188 139.967 92.623 139.735C97.6581 139.087 102.845 138.514 107.861 137.961C109.326 137.799 110.794 137.637 112.264 137.473C118.533 145.018 125.734 150.687 131.781 154.648C135.041 156.784 138.408 158.723 141.815 160.489C136.031 164.863 130.405 169.466 124.912 173.96C123.01 175.516 121.086 177.088 119.147 178.66H119.686C121.516 177.176 123.332 175.692 125.128 174.223C130.659 169.698 136.325 165.062 142.15 160.662C145.197 162.23 148.274 163.659 151.335 164.969C147.147 167.632 143.735 171.756 141.671 176.764C141.412 177.391 141.187 178.024 140.978 178.66H141.336C141.533 178.068 141.744 177.478 141.985 176.894C144.055 171.872 147.496 167.752 151.716 165.131C160.272 168.766 168.682 171.465 175.908 173.603L176.18 173.683C179.225 174.584 182.34 175.506 185.095 176.989C185.172 176.901 185.249 176.813 185.326 176.725C182.526 175.206 179.366 174.271 176.277 173.357L176.005 173.277C168.852 171.16 160.539 168.495 152.074 164.914C153.177 164.257 154.331 163.703 155.526 163.26C164.347 159.991 174.129 162.075 182.759 163.914Z" fill="white"/>
<path d="M15.351 141.891C16.8527 148.038 16.1828 154.676 13.5127 160.104C11.7639 163.659 9.2384 166.878 6.12769 169.642C6.18957 169.738 6.25281 169.834 6.31564 169.929C9.47681 167.129 12.0426 163.863 13.8179 160.254C16.5227 154.756 17.2018 148.033 15.6812 141.81C14.4933 136.948 12.1051 132.829 8.80565 129.85C8.73208 129.936 8.65904 130.023 8.58642 130.11C11.831 133.044 14.1806 137.1 15.351 141.891Z" fill="white"/>
<path d="M92.3025 64.0232C95.2644 67.0499 96.5919 72.1488 94.9588 76.8499C93.3776 81.4018 89.9111 85.1722 85.7464 87.5961C82.3955 89.5464 78.0244 90.6223 74.7289 88.58C72.2662 87.0538 70.9892 84.0596 70.9182 81.1632C70.8472 78.2669 71.8212 75.4442 73.0251 72.8089C74.7221 69.0942 77.0059 65.492 80.4082 63.2331C85.098 60.1194 89.4555 61.1139 92.3025 64.0232Z" fill="#2F9C8C" fill-opacity="0.2"/>
<path d="M53.0413 10.9567H28.5151V0H53.0413V10.9567ZM29.0251 10.4467H52.5313V0.509998H29.0251V10.4467Z" fill="#3D65ED"/>
<path d="M37.0857 21.4346H12.5596V10.4779H37.0857V21.4346ZM13.0696 20.9246H36.5757V10.9879H13.0696V20.9246Z" fill="#3D65ED"/>
<path d="M192.589 33.1096C191.001 27.8289 188.208 22.9806 184.21 18.5481C180.203 14.1156 174.738 10.4566 167.816 7.56265C160.894 4.66858 152.099 3.22168 141.43 3.22168C132.92 3.22168 124.247 4.36924 115.411 6.66451C106.567 8.96806 98.8956 12.2446 92.3887 16.5024L100.858 39.7555L96.3189 43.4328L102.902 45.3675C109.401 41.9661 115.321 39.4964 120.664 37.9578C125.998 36.4277 131.666 35.6626 137.676 35.6626C143.678 35.6626 148.222 37.1096 151.309 40.0035C154.395 42.9059 155.934 46.3902 155.934 50.4818C155.934 55.4215 154.346 59.8041 151.186 63.6378C148.01 67.4715 144.509 71.3468 140.673 75.2637C138.01 77.983 135.42 80.7939 132.92 83.6879C130.42 86.5901 128.205 89.6922 126.291 93.0186C124.369 96.3367 122.83 99.9126 121.665 103.746C120.493 107.58 119.915 111.879 119.915 116.645C119.915 118.183 119.947 120.013 120.037 122.141C120.052 122.534 120.072 122.917 120.096 123.295H113.872L120.664 127.888H153.687C153.516 126.865 153.434 125.676 153.434 124.312C153.434 122.948 153.434 121.925 153.434 121.243C153.434 118.349 154.021 115.497 155.185 112.686C156.35 109.875 157.816 107.198 159.567 104.636C161.318 102.083 163.272 99.6548 165.446 97.3597C167.613 95.0561 169.698 92.8856 171.701 90.8399C174.364 88.1205 177.117 85.2265 179.951 82.1579C182.785 79.0894 185.293 75.8626 187.459 72.4531C189.625 69.0436 191.417 65.343 192.834 61.3345C194.251 57.3345 194.968 52.9519 194.968 48.1785C194.967 43.4132 194.169 38.3903 192.589 33.1096Z" fill="#5B7CEB"/>
<path d="M130.685 34.0405C124.745 34.0405 119.144 34.7809 113.872 36.2618C108.592 37.7507 102.742 40.1411 96.3189 43.4328L85.9287 15.4976C92.3592 11.3769 99.9406 8.20596 108.681 5.97652C117.413 3.75524 125.985 2.64453 134.395 2.64453C144.938 2.64453 153.63 4.04492 160.471 6.84569C167.312 9.64646 172.712 13.1876 176.672 17.4773C180.624 21.767 183.384 26.4591 184.954 31.5697C186.515 36.6803 187.304 41.5415 187.304 46.1531C187.304 50.7727 186.595 55.0141 185.195 58.8853C183.795 62.7646 182.024 66.346 179.883 69.6457C177.743 72.9455 175.264 76.0682 172.463 79.038C169.662 82.0078 166.942 84.8086 164.31 87.4403C162.33 89.4202 160.27 91.5207 158.129 93.7501C155.98 95.9714 154.049 98.3215 152.318 100.792C150.588 103.271 149.139 105.863 147.988 108.583C146.837 111.303 146.258 114.064 146.258 116.864C146.258 117.524 146.258 118.514 146.258 119.834C146.258 121.154 146.338 122.305 146.507 123.295H113.872C113.534 121.645 113.333 119.794 113.252 117.734C113.164 115.673 113.132 113.903 113.132 112.414C113.132 107.802 113.703 103.641 114.862 99.9312C116.013 96.221 117.534 92.7602 119.433 89.549C121.325 86.3297 123.514 83.3277 125.984 80.5189C128.455 77.7181 131.015 74.9979 133.646 72.3661C137.437 68.5754 140.898 64.825 144.037 61.1148C147.159 57.4046 148.729 53.1632 148.729 48.3825C148.729 44.4227 147.208 41.0506 144.157 38.2418C141.107 35.4409 136.616 34.0405 130.685 34.0405Z" fill="#2A7AA7"/>
<path d="M155.947 159.942C155.947 165.896 154.019 170.49 150.165 173.731C146.31 176.979 141.954 178.596 137.089 178.596C132.218 178.596 127.861 176.979 124.006 173.731C120.158 170.49 118.231 165.896 118.231 159.942C118.231 153.995 120.158 149.401 124.007 146.154C129.94 141.146 138.719 140.03 145.666 143.545C151.83 146.663 155.947 152.997 155.947 159.942Z" fill="#5B7CEB"/>
<path d="M149.487 159.942C149.487 165.896 147.56 170.49 143.705 173.731C139.85 176.978 135.494 178.596 130.629 178.596C125.758 178.596 121.401 176.978 117.546 173.731C113.698 170.49 111.771 165.896 111.771 159.942C111.771 153.995 113.698 149.401 117.546 146.154C121.401 142.913 125.758 141.289 130.629 141.289C135.494 141.289 139.85 142.913 143.705 146.154C147.56 149.401 149.487 153.995 149.487 159.942Z" fill="#2A7AA7"/>
<path d="M51.7239 75.5335C52.0857 73.6029 50.8139 71.7446 48.8834 71.3828C46.9528 71.021 45.0945 72.2927 44.7327 74.2233C44.3709 76.1538 45.6427 78.0122 47.5732 78.374C49.5038 78.7358 51.3621 77.464 51.7239 75.5335Z" fill="#D3DFFF"/>
<path d="M53.4251 82.2189C53.6286 81.1331 52.9071 80.0867 51.8136 79.8818C50.72 79.6769 49.6686 80.391 49.4651 81.4768C49.2616 82.5626 49.9831 83.609 51.0767 83.8139C52.1702 84.0189 53.2216 83.3047 53.4251 82.2189Z" fill="#D3DFFF"/>
<path d="M49.3532 66.8776C54.8215 61.4093 54.8215 52.5434 49.3532 47.0751C43.8849 41.6067 35.019 41.6067 29.5507 47.0751C24.0824 52.5434 24.0824 61.4093 29.5507 66.8776C35.019 72.3459 43.8849 72.3459 49.3532 66.8776Z" fill="#D3DFFF"/>
<path d="M34.0764 58.7409C35.0508 58.7409 35.8406 57.951 35.8406 56.9767C35.8406 56.0024 35.0508 55.2125 34.0764 55.2125C33.1021 55.2125 32.3123 56.0024 32.3123 56.9767C32.3123 57.951 33.1021 58.7409 34.0764 58.7409Z" fill="white"/>
<path d="M39.4534 58.7408C40.4277 58.7408 41.2176 57.9509 41.2176 56.9766C41.2176 56.0023 40.4277 55.2124 39.4534 55.2124C38.4791 55.2124 37.6892 56.0023 37.6892 56.9766C37.6892 57.9509 38.4791 58.7408 39.4534 58.7408Z" fill="white"/>
<path d="M44.8299 58.7408C45.8042 58.7408 46.594 57.9509 46.594 56.9766C46.594 56.0023 45.8042 55.2124 44.8299 55.2124C43.8555 55.2124 43.0657 56.0023 43.0657 56.9766C43.0657 57.9509 43.8555 58.7408 44.8299 58.7408Z" fill="white"/>
<path d="M29.4211 171.586L30.7294 176.63C31.0707 177.945 32.3424 178.834 33.7494 178.739C38.0393 178.447 46.9524 177.396 52.068 173.626L50.6138 166.356C43.5802 165.959 37.0023 166.35 31.3066 168.268C29.8805 168.748 29.0557 170.177 29.4211 171.586Z" fill="#102048"/>
<path d="M37.6191 175.601C37.5448 175.601 37.4765 175.552 37.4554 175.477L35.6987 169.187C35.6734 169.096 35.7263 169.003 35.8167 168.977C35.9077 168.952 36.001 169.005 36.0263 169.095L37.783 175.385C37.8082 175.476 37.7554 175.57 37.665 175.595C37.6496 175.599 37.6341 175.601 37.6191 175.601Z" fill="white"/>
<path d="M41.4155 174.751C41.3411 174.751 41.2728 174.702 41.2517 174.627L39.495 168.337C39.4699 168.246 39.5227 168.153 39.6131 168.127C39.7042 168.102 39.7974 168.155 39.8227 168.246L41.5794 174.535C41.6047 174.626 41.5518 174.72 41.4613 174.745C41.446 174.749 41.4306 174.751 41.4155 174.751Z" fill="white"/>
<path d="M45.8247 144.321L29.4771 149.173L41.6176 165.808L59.047 167.194L83.0875 157.028L73.9521 143.282L45.8247 144.321Z" fill="#44505B"/>
<path d="M65.9787 146.632C101.879 136.004 107.649 167.733 51.6346 173.509C49.656 171.283 47.3439 167.419 46.4258 164.19L76.0062 150.521L65.9787 146.632Z" fill="#44505B"/>
<path d="M67.5037 169.371C65.8248 168.834 64.2158 167.771 64.2158 167.771L58.446 169.581L59.7682 175.858L65.762 177.076C67.5879 173.736 67.6945 170.994 67.5037 169.371Z" fill="#F9B384"/>
<path d="M46.5541 164.411L46.2979 163.97C52.4688 160.383 68.2758 151.767 81.7431 149.226L81.8376 149.728C68.4479 152.254 52.7023 160.838 46.5541 164.411Z" fill="#006253"/>
<path d="M45.8248 144.321C12.4084 137.968 3.75376 170.082 59.7682 175.858C61.7468 173.631 63.2976 171.001 64.2157 167.772C55.6114 162.014 45.991 156.542 35.4472 151.329L45.8248 144.321Z" fill="#44505B"/>
<path d="M64.0787 167.987C62.4892 166.975 60.8328 165.905 59.0793 164.773C50.2764 159.09 40.2991 152.648 31.8223 148.974L32.025 148.506C40.5405 152.196 50.5365 158.65 59.3557 164.345C61.1086 165.476 62.7643 166.546 64.3525 167.556L64.0787 167.987Z" fill="#006253"/>
<path d="M21.3074 160.244L20.8611 159.998C22.1154 157.727 24.1245 156.195 26.8325 155.445L26.9687 155.937C24.3614 156.659 22.5097 158.068 21.3074 160.244Z" fill="#006253"/>
<path d="M91.0524 158.311C89.8501 156.135 87.9984 154.726 85.3911 154.003L85.5273 153.512C88.2354 154.262 90.2444 155.794 91.4987 158.065L91.0524 158.311Z" fill="#006253"/>
<path d="M56.6391 175.576L56.2664 175.228C58.9394 172.365 60.5812 169.342 61.2854 165.988L61.7845 166.093C61.0607 169.541 59.3776 172.643 56.6391 175.576Z" fill="#006253"/>
<path d="M84.1698 167.502C79.8886 164.857 71.5887 169.427 69.5051 169.658C68.8978 169.726 68.1951 169.593 67.5041 169.371C67.6949 170.994 67.5882 173.736 65.7625 177.076L66.7805 177.282C66.7805 177.282 73.8188 179.862 81.285 178.361C88.1765 176.974 87.5356 169.581 84.1698 167.502Z" fill="#102048"/>
<path d="M78.334 176.154C78.317 176.154 78.2998 176.151 78.2827 176.146C78.1932 176.117 78.1436 176.022 78.1718 175.932C78.6805 174.322 78.9024 171.153 77.4292 169.025C77.3757 168.948 77.395 168.842 77.4721 168.789C77.5491 168.735 77.6552 168.755 77.7086 168.832C79.2514 171.06 79.0247 174.36 78.4959 176.035C78.4731 176.107 78.4062 176.154 78.334 176.154Z" fill="white"/>
<path d="M74.9765 176.791C74.9595 176.791 74.9424 176.789 74.9253 176.783C74.8358 176.755 74.7861 176.659 74.8144 176.57C75.3231 174.959 75.545 171.791 74.0717 169.663C74.0183 169.586 74.0376 169.48 74.1147 169.426C74.1917 169.373 74.2976 169.392 74.3512 169.469C75.894 171.698 75.6673 174.998 75.1385 176.672C75.1157 176.745 75.0488 176.791 74.9765 176.791Z" fill="white"/>
<path d="M39.9126 102.914C39.9126 102.914 48.3284 95.7581 48.0168 94.3981C47.794 93.4262 45.4101 94.8513 45.4101 94.8513C45.4101 94.8513 48.7534 90.8847 48.5834 90.4031C48.2796 89.5424 45.9673 91.1467 45.9673 91.1467C45.9673 91.1467 47.5302 88.8972 46.783 88.5306C46.0358 88.1641 44.4068 89.5504 44.4068 89.5504C44.4068 89.5504 45.3586 88.3014 44.9114 87.9737C44.4642 87.646 42.5352 88.9934 42.5352 88.9934C42.5352 88.9934 43.2275 87.4186 41.7569 88.0156C40.2863 88.6127 29.9749 98.0755 29.9749 98.0755L39.9126 102.914Z" fill="#F9B384"/>
<path d="M43.356 94.4264C43.315 94.4264 43.274 94.4117 43.2413 94.382C41.7967 93.0621 41.1599 92.7417 39.5661 92.2514C39.4763 92.2239 39.426 92.1287 39.4536 92.039C39.4812 91.9492 39.5763 91.8986 39.6662 91.9265C41.3175 92.4343 41.9769 92.766 43.4709 94.1309C43.5403 94.1943 43.545 94.3019 43.4818 94.3711C43.4481 94.4078 43.4021 94.4264 43.356 94.4264Z" fill="#3D65ED"/>
<path d="M40.8203 98.3081C40.8124 98.3081 40.8045 98.3075 40.7967 98.3064C40.7036 98.2934 40.6388 98.2074 40.6518 98.1146C40.8172 96.9312 41.1897 96.1917 41.7907 95.8538C42.3043 95.5648 42.9728 95.5946 43.7775 95.942C43.8637 95.9791 43.9034 96.0792 43.8662 96.1654C43.829 96.2516 43.7289 96.2916 43.6427 96.2541C42.9408 95.9509 42.3738 95.916 41.9573 96.1502C41.4621 96.4286 41.1361 97.1053 40.9886 98.1615C40.9766 98.2465 40.9038 98.3081 40.8203 98.3081Z" fill="#3D65ED"/>
<path d="M40.4235 91.1539C40.3783 91.1539 40.3332 91.1359 40.2997 91.1004C40.2353 91.032 40.2385 90.9245 40.3068 90.8601L42.4186 88.8698C42.4869 88.805 42.5944 88.8086 42.6589 88.8769C42.7234 88.9453 42.7201 89.0528 42.6518 89.1172L40.54 91.1075C40.5073 91.1387 40.4654 91.1539 40.4235 91.1539Z" fill="#3D65ED"/>
<path d="M42.3785 91.8339C42.3361 91.8339 42.2938 91.8183 42.2608 91.7865C42.193 91.7214 42.1909 91.6139 42.2559 91.5461L44.2843 89.4327C44.3493 89.3647 44.4569 89.3625 44.5247 89.4278C44.5925 89.4928 44.5946 89.6004 44.5296 89.6681L42.5012 91.7816C42.4677 91.8164 42.4231 91.8339 42.3785 91.8339Z" fill="#3D65ED"/>
<path d="M44.376 93.0238C44.3345 93.0238 44.2929 93.0087 44.2602 92.9781C44.1915 92.9141 44.1877 92.8065 44.2517 92.7378L45.8432 91.0306C45.9074 90.9622 46.0147 90.9583 46.0835 91.0222C46.1522 91.0863 46.156 91.1938 46.0919 91.2625L44.5005 92.9697C44.4669 93.0056 44.4216 93.0238 44.376 93.0238Z" fill="#3D65ED"/>
<path d="M71.7031 150.78L40.9332 151.97L37.5332 123.92C37.5332 123.92 47.8342 114.15 51.7974 110.552L58.4879 110.208C79.2456 119.644 75.8466 131.428 71.7031 150.78Z" fill="#FF5050"/>
<path d="M58.488 110.208C58.488 110.208 82.2364 112.239 89.7232 128.51C97.049 144.431 66.9433 150.1 66.9433 150.1L58.488 110.208Z" fill="#FF5050"/>
<path d="M31.3418 113.695L41.1553 101.753L31.9784 96.1913C28.1503 98.8531 20.7475 104.882 14.474 111.709C13.0893 113.216 12.0077 114.976 11.4629 116.914C10.998 118.568 10.9136 120.202 11.1748 121.801C11.8558 125.97 15.1353 129.188 19.5129 129.7C23.2517 130.138 37.5329 129.02 49.0928 125.62L52.4928 112.498C50.7458 111.506 37.7609 111.334 31.3418 113.695Z" fill="#FF5050"/>
<g opacity="0.8">
<path d="M78.3067 116.666C78.3578 116.654 78.4091 116.642 78.4603 116.63C78.3529 116.567 78.2452 116.505 78.1377 116.443C76.3973 116.843 74.6015 117.253 72.8315 117.466C71.7677 117.595 68.2135 117.829 67.1747 115.461C66.6579 114.283 67.0491 112.973 67.6336 112.053C67.5482 112.028 67.4637 112.005 67.3789 111.98C66.7803 112.955 66.3961 114.321 66.9414 115.564C68.0503 118.093 71.754 117.853 72.8621 117.719C74.6833 117.5 76.5252 117.076 78.3067 116.666Z" fill="white"/>
<path d="M89.3895 135.016C88.255 134.578 87.0829 134.125 85.8506 134.241C83.6893 134.445 81.8397 136.582 81.7277 139.005C81.6511 140.657 82.2821 142.389 83.4853 143.911C83.5578 143.866 83.63 143.821 83.702 143.775C82.5257 142.295 81.9084 140.615 81.9824 139.017C82.089 136.716 83.835 134.688 85.8746 134.495C87.0462 134.386 88.1396 134.807 89.2974 135.254C89.7107 135.414 90.1308 135.575 90.5577 135.711C90.5797 135.629 90.6011 135.547 90.6209 135.464C90.2049 135.33 89.7939 135.173 89.3895 135.016Z" fill="white"/>
<path d="M29.448 126.907C27.9653 125.68 25.6615 125.353 23.1285 126.007C20.871 126.591 18.9341 127.748 17.6035 129.279C17.691 129.307 17.7764 129.339 17.865 129.365C19.1596 127.913 21.0243 126.815 23.1921 126.254C25.6449 125.62 27.8663 125.93 29.2856 127.103C29.9602 127.661 30.4371 128.385 30.7838 129.167C30.8713 129.157 30.9592 129.146 31.0473 129.136C30.6845 128.296 30.1787 127.511 29.448 126.907Z" fill="white"/>
<path d="M16.0447 110.041C18.8229 109.351 21.5339 108.382 24.0344 106.941C24.9792 106.397 26.0461 105.703 26.7964 104.684C27.5946 103.6 27.8598 102.31 27.5059 101.232C27.367 100.81 27.1213 100.439 26.8141 100.141C26.7491 100.194 26.6834 100.248 26.618 100.302C26.9048 100.575 27.1346 100.919 27.2635 101.312C27.5917 102.311 27.3404 103.515 26.5912 104.533C25.8689 105.514 24.8292 106.189 23.9072 106.72C21.5487 108.079 18.9976 109.018 16.3772 109.697C16.2661 109.811 16.1554 109.926 16.0447 110.041Z" fill="white"/>
</g>
<path d="M60.6612 103.972L60.6568 104.408L60.5879 111.171L60.5793 111.904C60.5664 113.05 60.0965 114.089 59.3379 114.844C58.5835 115.594 57.5447 116.063 56.3938 116.072C54.0747 116.085 52.1781 114.223 52.1566 111.899L52.0747 103.541L60.6612 103.972Z" fill="#F9B384"/>
<path d="M60.6567 104.408L60.5878 111.171C56.8289 109.641 55.2815 105.572 55.2815 105.572L60.6567 104.408Z" fill="#102048"/>
<path d="M62.1438 92.6055C63.4909 94.222 67.4243 103.382 63.4371 106.507C58.9502 110.024 52.1218 104.244 52.1218 104.244L51.2058 93.5754L57.1328 92.0128L62.1438 92.6055Z" fill="#F9B384"/>
<path d="M48.1862 92.0179C48.1862 92.0179 35.0395 98.8746 45.759 118.639C47.1357 121.178 50.1852 122.286 52.794 121.047C55.5924 119.719 56.652 116.3 55.1325 113.6C53.379 110.485 51.6867 106.474 52.4091 103.49L48.1862 92.0179Z" fill="#102048"/>
<path d="M51.9408 97.7778C53.3296 96.389 53.3296 94.1373 51.9409 92.7486C50.5521 91.3598 48.3004 91.3598 46.9116 92.7486C45.5228 94.1373 45.5228 96.389 46.9116 97.7778C48.3004 99.1666 50.5521 99.1666 51.9408 97.7778Z" fill="#44505B"/>
<path d="M53.8025 99.5366C53.4183 97.3179 53.1841 95.7964 55.4265 94.653C55.4265 94.653 63.3292 96.0898 64.8379 93.1083C66.3466 90.1268 64.0476 85.4212 59.2342 88.6899C46.9132 86.2831 45.2608 97.814 48.9966 101.658L52.6838 101.092C53.4258 100.978 53.9305 100.276 53.8025 99.5366Z" fill="#102048"/>
<path d="M59.9209 100.068C60.211 100.068 60.4462 99.833 60.4462 99.5428C60.4462 99.2527 60.211 99.0175 59.9209 99.0175C59.6307 99.0175 59.3955 99.2527 59.3955 99.5428C59.3955 99.833 59.6307 100.068 59.9209 100.068Z" fill="#102048"/>
<path d="M63.477 98.317C63.7672 98.317 64.0024 98.0817 64.0024 97.7916C64.0024 97.5014 63.7672 97.2662 63.477 97.2662C63.1869 97.2662 62.9517 97.5014 62.9517 97.7916C62.9517 98.0817 63.1869 98.317 63.477 98.317Z" fill="#102048"/>
<path d="M63.1135 101.16C63.0767 101.16 63.0398 101.146 63.0111 101.119C62.9515 101.062 62.9491 100.968 63.0058 100.909C63.2165 100.687 63.4473 100.375 63.3503 100.149C63.2495 99.9141 62.8237 99.8127 62.6287 99.8127C62.2095 99.8127 62.0083 99.067 61.9722 98.9175C61.9529 98.8377 62.002 98.7573 62.0818 98.7381C62.1615 98.7183 62.242 98.7678 62.2614 98.8478C62.3379 99.1627 62.5112 99.5152 62.6287 99.5152C62.8293 99.5152 63.4428 99.61 63.6237 100.032C63.7529 100.332 63.6175 100.697 63.2215 101.113C63.1921 101.144 63.1528 101.16 63.1135 101.16Z" fill="#102048"/>
<path d="M63.1403 103.153C63.1116 103.153 63.0827 103.145 63.0572 103.128C62.068 102.46 61.0693 103.02 61.0592 103.026C60.9882 103.067 60.8972 103.042 60.856 102.971C60.8151 102.9 60.8396 102.809 60.9108 102.768C60.9581 102.741 62.0822 102.111 63.2235 102.881C63.2915 102.927 63.3096 103.02 63.2636 103.088C63.2349 103.131 63.188 103.153 63.1403 103.153Z" fill="#102048"/>
<path d="M59.6906 97.2675C59.9896 97.8299 59.4687 97.9428 58.8585 98.267C58.2482 98.5913 57.6235 98.71 57.4809 98.4417C57.3384 98.1733 57.7174 97.693 58.3277 97.3688C58.9379 97.0446 59.4593 96.832 59.6906 97.2675Z" fill="#102048"/>
<path d="M61.9161 96.2521C62.0475 96.7542 62.4219 96.5343 62.9666 96.3918C63.5113 96.2493 63.9512 95.9755 63.8885 95.7361C63.8258 95.4966 63.3335 95.418 62.7888 95.5606C62.2441 95.703 61.8144 95.8634 61.9161 96.2521Z" fill="#102048"/>
<path opacity="0.4" d="M58.5522 103.133C59.1811 102.553 59.2208 101.572 58.6407 100.944C58.0606 100.315 57.0805 100.275 56.4515 100.855C55.8226 101.435 55.783 102.415 56.3631 103.044C56.9432 103.673 57.9233 103.713 58.5522 103.133Z" fill="#EB5D60"/>
<path d="M53.501 103.448C54.2089 102.531 53.9376 101.135 52.8952 100.331C51.8528 99.5262 50.4339 99.6178 49.726 100.535C49.0182 101.452 49.2894 102.848 50.3318 103.653C51.3742 104.457 52.7931 104.365 53.501 103.448Z" fill="#F9B384"/>
<path d="M52.5355 102.777C52.4533 102.777 52.3867 102.711 52.3867 102.629C52.3867 102.19 52.1726 101.784 51.8141 101.543C51.5076 101.336 51.142 101.288 50.8366 101.413C50.7604 101.443 50.6737 101.407 50.6426 101.331C50.6116 101.255 50.6481 101.168 50.7242 101.137C51.1215 100.975 51.5911 101.034 51.9802 101.296C52.4211 101.592 52.6843 102.09 52.6843 102.629C52.6841 102.711 52.6176 102.777 52.5355 102.777Z" fill="#102048"/>
<path d="M31.2149 113.575L25.8472 119.382L26.0968 119.613L31.4646 113.806L31.2149 113.575Z" fill="#102048"/>
<path d="M69.0325 138.534L68.9333 138.209C72.841 137.018 76.6334 135.593 80.0701 131.295L80.3355 131.507C76.8383 135.881 72.9933 137.327 69.0325 138.534Z" fill="#102048"/>
<path d="M71.4082 125.367H38.1675C36.9721 125.367 36.0029 126.416 36.0029 127.709V151.442C36.0029 152.735 36.9721 153.784 38.1675 153.784H71.4083C72.6038 153.784 73.5729 152.735 73.5729 151.442V127.709C73.5728 126.416 72.6036 125.367 71.4082 125.367Z" fill="#D3DFFF"/>
<path d="M56.5436 138.076C56.6698 138.076 56.772 138.186 56.772 138.323V140.829C56.772 140.965 56.6698 141.076 56.5436 141.076H53.034C52.9078 141.076 52.8055 140.965 52.8055 140.829V138.323C52.8055 138.186 52.9078 138.076 53.034 138.076H56.5436ZM56.5436 137.396H53.034C52.5331 137.396 52.1255 137.812 52.1255 138.323V140.829C52.1255 141.34 52.5331 141.756 53.034 141.756H56.5436C57.0445 141.756 57.452 141.34 57.452 140.829V138.323C57.452 137.812 57.0445 137.396 56.5436 137.396Z" fill="#1F3C88"/>
<path d="M200.419 178.32H0V179H200.419V178.32Z" fill="#102048"/>
</svg>
